<?xml version="1.0" standalone="no"?>
<!DOCTYPE svg PUBLIC "-//W3C//DTD SVG 20010904//EN"
 "http://www.w3.org/TR/2001/REC-SVG-20010904/DTD/svg10.dtd">
<svg version="1.0" xmlns="http://www.w3.org/2000/svg"
 width="400.000000pt" height="400.000000pt" viewBox="0 0 400.000000 400.000000"
 preserveAspectRatio="xMidYMid meet">
<metadata>
Created by potrace 1.16, written by Peter Selinger 2001-2019
</metadata>
<g transform="translate(0.000000,400.000000) scale(0.100000,-0.100000)"
fill="#000000" stroke="none">
<path d="M523 3117 c-18 -12 -33 -27 -33 -34 0 -6 -6 -13 -12 -15 -10 -4 -13
-192 -13 -896 l0 -892 38 -37 37 -38 1448 0 c1433 0 1447 0 1470 20 13 11 32
37 43 57 18 36 19 69 19 892 0 512 -4 857 -9 861 -5 3 -12 18 -16 33 -3 16
-20 36 -40 50 l-35 22 -1432 -1 -1433 0 -32 -22z m2807 -944 l0 -788 -1337 2
c-736 2 -1339 5 -1340 8 -2 3 -3 354 -3 780 l0 775 1338 3 c735 1 1338 3 1340
5 1 1 2 -352 2 -785z"/>
<path d="M0 1030 c0 -80 17 -124 52 -134 28 -7 3845 -8 3873 0 38 10 65 67 65
139 l0 65 -865 0 -865 0 0 -30 c0 -22 -5 -31 -22 -35 -13 -3 -133 -4 -268 -3
l-245 3 -3 33 -3 32 -860 0 -859 0 0 -70z"/>
</g>
</svg>
