<?xml version="1.0" standalone="no"?>
<!DOCTYPE svg PUBLIC "-//W3C//DTD SVG 20010904//EN"
 "http://www.w3.org/TR/2001/REC-SVG-20010904/DTD/svg10.dtd">
<svg version="1.0" xmlns="http://www.w3.org/2000/svg"
 width="2400.000000pt" height="3171.000000pt" viewBox="0 0 2400.000000 3171.000000"
 preserveAspectRatio="xMidYMid meet">
<metadata>
Created by potrace 1.16, written by Peter Selinger 2001-2019
</metadata>
<g transform="translate(0.000000,3171.000000) scale(0.100000,-0.100000)"
fill="#000000" stroke="none">
<path d="M12835 31693 c38 -91 170 -461 230 -644 516 -1571 701 -3201 544
-4799 -108 -1099 -383 -2137 -830 -3133 -456 -1014 -1083 -1949 -1904 -2837
-219 -237 -679 -690 -940 -926 -388 -350 -872 -751 -1309 -1082 -144 -109
-162 -120 -181 -109 -22 12 -137 151 -268 325 -750 992 -1194 2158 -1322 3467
-30 308 -36 423 -42 793 -3 204 -8 372 -10 372 -48 0 -883 -939 -1378 -1550
-1757 -2167 -3144 -4386 -4070 -6510 -773 -1775 -1200 -3388 -1331 -5025 -21
-272 -30 -1057 -15 -1337 89 -1603 511 -2983 1282 -4190 509 -797 1192 -1527
2004 -2138 1378 -1037 3202 -1768 5290 -2119 1056 -177 1980 -251 3150 -251
2330 0 4429 286 5970 812 970 331 1831 782 2555 1337 577 443 1102 975 1553
1576 662 882 1185 1926 1619 3230 301 905 462 1806 545 3050 22 332 25 1576 5
1915 -81 1347 -266 2556 -588 3854 -500 2012 -1328 4080 -2427 6061 -1329
2397 -2987 4643 -5132 6955 -372 401 -564 599 -1150 1186 -499 499 -853 844
-1080 1050 -66 60 -194 179 -285 264 -256 241 -463 420 -485 420 -4 0 -4 -8 0
-17z"/>
</g>
</svg>
