<?xml version="1.0" standalone="no"?>
<!DOCTYPE svg PUBLIC "-//W3C//DTD SVG 20010904//EN"
 "http://www.w3.org/TR/2001/REC-SVG-20010904/DTD/svg10.dtd">
<svg version="1.0" xmlns="http://www.w3.org/2000/svg"
 width="512.000000pt" height="512.000000pt" viewBox="0 0 512.000000 512.000000"
 preserveAspectRatio="xMidYMid meet">
<metadata>
Created by potrace 1.16, written by Peter Selinger 2001-2019
</metadata>
<g transform="translate(0.000000,512.000000) scale(0.100000,-0.100000)"
fill="#000000" stroke="none">
<path d="M3075 4464 c-16 -2 -70 -9 -120 -15 -449 -56 -888 -295 -1189 -649
-173 -203 -206 -291 -152 -405 43 -91 116 -138 218 -138 92 0 137 30 234 153
228 294 502 471 853 551 113 26 362 36 479 20 485 -69 887 -361 1110 -807 43
-86 99 -259 119 -367 23 -124 23 -370 0 -494 -100 -549 -510 -993 -1052 -1137
-146 -39 -247 -50 -417 -43 -223 9 -382 49 -579 147 -199 99 -364 238 -512
429 -94 120 -141 151 -238 151 -188 0 -297 -206 -195 -368 75 -119 221 -282
351 -390 271 -227 577 -366 940 -429 207 -35 530 -19 760 38 525 130 992 506
1240 999 200 397 250 893 135 1339 -131 511 -500 967 -978 1209 -188 96 -365
153 -572 186 -94 15 -377 28 -435 20z"/>
<path d="M2743 3489 c-55 -10 -115 -51 -149 -102 -22 -33 -29 -57 -32 -109 -7
-110 2 -124 186 -310 l166 -168 -1350 0 c-1482 0 -1410 3 -1486 -60 -105 -87
-106 -268 -2 -359 72 -64 2 -61 1488 -61 l1351 0 -162 -162 c-101 -101 -168
-177 -178 -200 -20 -50 -19 -151 2 -196 39 -83 121 -134 213 -134 104 0 112 7
531 428 l387 389 13 58 c10 46 10 68 0 115 l-13 57 -391 393 c-403 403 -413
412 -502 425 -16 2 -49 0 -72 -4z"/>
</g>
</svg>
