<?xml version="1.0" standalone="no"?>
<!DOCTYPE svg PUBLIC "-//W3C//DTD SVG 20010904//EN"
 "http://www.w3.org/TR/2001/REC-SVG-20010904/DTD/svg10.dtd">
<svg version="1.0" xmlns="http://www.w3.org/2000/svg"
 width="512.000000pt" height="512.000000pt" viewBox="0 0 512.000000 512.000000"
 preserveAspectRatio="xMidYMid meet">
<metadata>
Created by potrace 1.16, written by Peter Selinger 2001-2019
</metadata>
<g transform="translate(0.000000,512.000000) scale(0.100000,-0.100000)"
fill="#000000" stroke="none">
<path d="M1830 5084 c-704 -66 -1285 -457 -1596 -1075 -203 -405 -253 -887
-139 -1339 62 -246 173 -478 329 -685 76 -103 278 -305 381 -381 341 -256 736
-387 1165 -387 299 0 549 56 835 187 83 39 238 132 316 191 l45 34 82 -82 83
-83 -17 -44 c-26 -68 -23 -190 6 -265 21 -56 52 -89 509 -549 267 -268 509
-503 536 -521 70 -45 119 -59 206 -59 121 1 184 36 336 187 154 155 186 213
186 341 0 90 -16 143 -62 209 -16 23 -249 261 -518 528 -459 458 -492 488
-548 509 -75 29 -197 32 -265 6 l-44 -17 -83 83 -82 82 34 45 c138 182 252
420 314 656 101 379 83 794 -49 1155 -174 475 -515 853 -978 1084 -149 75
-359 139 -557 171 -100 16 -341 27 -425 19z m409 -388 c331 -61 618 -213 847
-448 49 -51 111 -120 136 -153 279 -368 381 -857 272 -1307 -220 -911 -1173
-1427 -2054 -1113 -227 80 -423 208 -595 386 -242 251 -385 545 -431 889 -104
781 401 1524 1169 1721 195 50 464 60 656 25z"/>
<path d="M927 3576 c-80 -158 -117 -313 -117 -493 0 -279 101 -536 289 -736
213 -226 481 -341 796 -341 138 0 201 9 330 51 105 33 285 124 285 143 0 3
-45 4 -100 2 -369 -15 -746 132 -1013 395 -250 246 -390 546 -417 895 -4 58
-5 118 -3 132 9 47 -12 27 -50 -48z"/>
</g>
</svg>
