<?xml version="1.0" standalone="no"?>
<!DOCTYPE svg PUBLIC "-//W3C//DTD SVG 20010904//EN"
 "http://www.w3.org/TR/2001/REC-SVG-20010904/DTD/svg10.dtd">
<svg version="1.0" xmlns="http://www.w3.org/2000/svg"
 width="980.000000pt" height="982.000000pt" viewBox="0 0 980.000000 982.000000"
 preserveAspectRatio="xMidYMid meet">
<metadata>
Created by potrace 1.16, written by Peter Selinger 2001-2019
</metadata>
<g transform="translate(0.000000,982.000000) scale(0.100000,-0.100000)"
fill="#000000" stroke="none">
<path d="M3930 9809 c-564 -23 -1121 -299 -1380 -684 -125 -187 -236 -442
-275 -635 -11 -54 -18 -196 -25 -510 -6 -239 -14 -500 -19 -580 -8 -134 -11
-151 -44 -225 -59 -133 -71 -193 -71 -345 0 -220 43 -349 188 -568 72 -110
106 -172 150 -284 107 -263 245 -512 407 -729 l89 -119 0 -113 c0 -61 -5 -128
-10 -148 -51 -184 -833 -591 -2131 -1110 -474 -189 -585 -243 -664 -322 -39
-40 -76 -91 -103 -144 l-42 -81 0 -529 c0 -540 6 -667 36 -725 47 -94 172
-217 274 -269 40 -20 65 -23 235 -30 105 -4 1097 -8 2206 -8 l2016 -1 57 60
58 61 -3 84 -4 84 -55 56 -54 55 -2180 0 -2179 0 6 182 c4 99 7 350 7 557 l0
376 198 79 c986 396 1613 679 2012 907 370 211 629 423 693 569 21 46 35 233
36 471 l1 97 -111 133 c-196 233 -311 433 -419 724 -92 252 -86 241 -191 351
-121 128 -143 175 -143 309 -1 103 19 157 96 266 l42 61 8 456 c10 612 21 801
52 922 160 631 652 921 1520 897 319 -9 536 -56 761 -167 355 -175 545 -467
585 -897 5 -59 15 -355 21 -656 l11 -548 53 -85 c69 -110 89 -169 89 -265 -1
-109 -38 -185 -148 -298 -46 -47 -91 -100 -100 -118 -8 -17 -40 -100 -71 -185
-110 -303 -237 -527 -441 -772 l-107 -129 6 -246 c7 -261 14 -318 49 -390 60
-125 392 -358 592 -416 54 -16 61 -16 102 0 84 32 155 143 140 219 -15 76 -67
123 -231 211 -116 62 -198 118 -224 151 -19 24 -21 40 -21 172 l0 145 79 106
c187 253 301 456 413 741 40 101 98 206 175 317 119 172 153 276 160 498 6
173 -3 223 -66 366 l-39 88 -11 443 c-17 691 -29 815 -97 1010 -139 401 -415
724 -770 901 -222 112 -536 191 -794 202 -69 3 -150 7 -180 8 -30 2 -129 0
-220 -4z"/>
<path d="M7285 4484 c-155 -21 -284 -51 -426 -100 -786 -269 -1395 -985 -1530
-1799 -21 -121 -18 -562 4 -686 87 -502 371 -1001 759 -1334 316 -272 711
-464 1078 -524 224 -36 520 -43 701 -16 695 103 1340 571 1679 1218 113 215
188 444 227 688 27 172 24 501 -5 670 -56 315 -160 583 -324 836 -380 585
-978 966 -1647 1049 -141 17 -382 17 -516 -2z m655 -428 c52 -9 149 -35 215
-57 591 -196 1019 -657 1188 -1278 l31 -116 1 -345 c0 -386 -2 -401 -77 -620
-187 -544 -603 -955 -1155 -1141 -185 -62 -243 -69 -588 -69 -347 0 -406 7
-591 71 -609 209 -1034 665 -1200 1284 -25 94 -27 116 -31 387 -7 374 2 463
67 660 103 313 242 533 478 759 142 136 266 223 437 308 187 92 356 148 521
170 112 15 592 6 704 -13z"/>
<path d="M7520 3552 c-70 -28 -89 -44 -111 -89 -28 -57 -38 -246 -39 -685 l0
-338 -232 -1 c-356 -1 -728 -15 -768 -29 -51 -19 -87 -57 -106 -113 -27 -83
-2 -175 63 -224 48 -37 119 -42 616 -42 l427 -1 1 -102 c0 -57 4 -278 8 -493
9 -431 10 -441 72 -487 48 -36 103 -51 153 -44 52 8 133 57 145 88 12 31 21
234 30 661 5 196 10 360 13 362 3 3 184 10 404 15 492 12 603 18 631 36 12 8
34 35 49 60 52 88 27 217 -52 268 -39 26 -170 35 -499 36 -159 0 -347 3 -417
7 l-128 6 -1 376 c-1 621 -7 663 -109 713 -77 37 -99 40 -150 20z"/>
</g>
</svg>
